<!--?xml version="1.0" encoding="utf-8"?-->
<!-- Generator: Adobe Illustrator 22.1.0, SVG Export Plug-In . SVG Version: 6.00 Build 0)  -->
<svg version="1.1" id="_x37_" xmlns="http://www.w3.org/2000/svg" xmlns:xlink="http://www.w3.org/1999/xlink" x="0px" y="0px" viewBox="0 0 800 763.465" style="enable-background:new 0 0 800 763.465;" xml:space="preserve">
<style type="text/css">
	.st0{fill:#3FBAC8;}
</style>
<g>
	<path class="st0" d="M182.419,102.321c0,4.817-3.908,8.735-8.729,8.735c-4.831,0-8.732-3.918-8.732-8.735
		c0-4.826,3.9-8.731,8.732-8.731C178.511,93.59,182.419,97.495,182.419,102.321z"></path>
	<path class="st0" d="M234.818,117.601c0,6.029-4.89,10.914-10.915,10.914c-6.034,0-10.924-4.885-10.924-10.914
		c0-6.025,4.889-10.914,10.924-10.914C229.928,106.687,234.818,111.576,234.818,117.601z"></path>
	<path class="st0" d="M357.059,32.462c0-12.049,9.77-21.825,21.82-21.825c12.059,0,21.83,9.776,21.83,21.825
		c0,12.067-9.772,21.835-21.83,21.835C366.829,54.296,357.059,44.529,357.059,32.462z"></path>
	<path class="st0" d="M453.1,63.031c0,4.821-3.9,8.729-8.722,8.729c-4.83,0-8.739-3.908-8.739-8.729
		c0-4.822,3.908-8.735,8.739-8.735C449.2,54.296,453.1,58.209,453.1,63.031z"></path>
	<path class="st0" d="M649.568,128.515c0,7.233-5.872,13.1-13.099,13.1c-7.229,0-13.091-5.867-13.091-13.1
		c0-7.236,5.862-13.099,13.091-13.099C643.697,115.417,649.568,121.279,649.568,128.515z"></path>
	<path class="st0" d="M798,276.952c0,9.644-7.809,17.474-17.461,17.474c-9.644,0-17.46-7.83-17.46-17.474
		c0-9.64,7.817-17.461,17.46-17.461C790.191,259.491,798,267.312,798,276.952z"></path>
	<path class="st0" d="M671.399,300.966c0-6.029,4.881-10.919,10.906-10.919c6.025,0,10.915,4.89,10.915,10.919
		c0,6.025-4.889,10.918-10.915,10.918C676.28,311.885,671.399,306.991,671.399,300.966z"></path>
	<path class="st0" d="M693.219,499.615c0,7.233-5.854,13.096-13.09,13.096c-7.246,0-13.1-5.863-13.1-13.096
		c0-7.241,5.854-13.103,13.1-13.103C687.365,486.511,693.219,492.374,693.219,499.615z"></path>
	<path class="st0" d="M623.378,648.047c0,7.236-5.871,13.108-13.091,13.108c-7.236,0-13.117-5.872-13.117-13.108
		c0-7.229,5.88-13.092,13.117-13.092C617.507,634.955,623.378,640.818,623.378,648.047z"></path>
	<path class="st0" d="M448.739,683.278c-0.171,6.03-5.189,10.775-11.214,10.608c-6.025-0.17-10.787-5.193-10.617-11.209
		c0.179-6.038,5.189-10.77,11.222-10.608C444.147,672.24,448.91,677.25,448.739,683.278z"></path>
	<path class="st0" d="M309.038,748.465c0-7.232,5.863-13.104,13.092-13.104c7.22,0,13.1,5.871,13.1,13.104
		c0,7.232-5.88,13.091-13.1,13.091C314.9,761.556,309.038,755.698,309.038,748.465z"></path>
	<path class="st0" d="M367.914,733.125c0-10.871,8.832-19.692,19.704-19.692c10.881,0,19.696,8.82,19.696,19.692
		c0,10.89-8.815,19.705-19.696,19.705C376.746,752.83,367.914,744.015,367.914,733.125z"></path>
	<path class="st0" d="M195.51,652.42c0,7.228-5.854,13.099-13.091,13.099c-7.22,0-13.099-5.872-13.099-13.099
		c0-7.236,5.879-13.099,13.099-13.099C189.656,639.321,195.51,645.184,195.51,652.42z"></path>
	<path class="st0" d="M55.81,447.216c0,9.649-7.808,17.474-17.46,17.474c-9.652,0-17.461-7.825-17.461-17.474
		c0-9.643,7.809-17.46,17.461-17.46C48.002,429.756,55.81,437.573,55.81,447.216z"></path>
	<path class="st0" d="M64.54,388.281c0,6.028-4.889,10.918-10.914,10.918c-6.025,0-10.906-4.89-10.906-10.918
		c0-6.025,4.881-10.907,10.906-10.907C59.651,377.375,64.54,382.256,64.54,388.281z"></path>
	<path class="st0" d="M12.158,196.191c0-10.855,8.79-19.655,19.645-19.655c10.846,0,19.645,8.799,19.645,19.655
		c0,10.846-8.799,19.64-19.645,19.64C20.949,215.831,12.158,207.037,12.158,196.191z"></path>
	<path class="st0" d="M720.511,369.724c8.73,1.646,16.923-3.269,16.376-11.457c-0.512-7.624-9.199-12.238-16.027-11.742
		c-9.89,0.725-115.729,9.225-131.406-34.115c-10.829-30.001,59.61-68.583,89.581-75.837c14.166-3.435,14.448-16.368,11.512-23.306
		c-2.927-6.934-15.736-14.666-24.731-7.92c-30.928,23.199-91.561,57.421-107.06,42.747c-7.193-6.819-16.888-24.975,10.915-42.58
		c9.472-5.996,12.579-19.496,3.857-29.331c-4.932-5.539-21.198-8.3-27.471,5.717c-9.643,21.578-34.502,22.129-42.379,16.12
		c-16.744-12.745,5.086-82.604,66.214-157.912c7.092-8.739,17.333-26.989-5.461-37.113c-9.823-4.366-28.375,4.369-32.736,27.287
		c-11.794,61.854-71.293,132.844-92.526,131.832c-17.725-0.858-27.402-13.624-26.455-37.968c0.274-6.822-5.948-11.837-10.744-11.837
		c-4.805,0-12.246,3.055-10.761,11.837c2.552,15.063-7.084,38.266-29.903,37.968c-23.016-0.307-52.271-84.895-61.017-108.91
		c-8.722-24.006-18.545-60.032-44.752-49.117c-12.894,5.376-13.816,28.742,9.831,64.397c46.407,69.978,49.795,113.86,28.495,124.147
		c-18.672,9.017-36.124-6.264-55.778-32.458c-7.082-9.439-22.786-5.786-28.034-0.537c-5.24,5.244-12.383,15.513,2.117,25.707
		c32.463,22.85,33.555,49.839,27.905,57.997c-19.457,28.153-78.393-4.587-104.472-27.074c-18.366-15.86-41.049-17.097-46.502-1.822
		c-7.4,20.691,22.035,32.216,33.283,33.044c15.676,1.147,96.535,49.735,93.813,59.567c-0.58,2.095-2.731,18.185-11.461,15.275
		c-2.944-0.976-10.556-1.638-11.291,5.641c-0.418,4.225,1.809,8.978,9.652,9.644c8.73,0.721,6.051,19.269,4.907,22.372
		c-3.917,10.71-13.296,16.108-27.411,17.388c-11.333,1.032-46.92-7.63-51.289,12.012c-4.582,20.575,29.528,17.669,39.964,13.091
		c13.296-5.833,19.773-8.966,32.07-8.726c54.574,1.092-102.356,87.157-176.09,110.225c-10.77,3.37-28.375,21.829-21.829,37.109
		c4.08,9.516,25.106,29.468,49.13,7.643c44.769-40.711,155.574-114.471,187.524-89.393c22.898,17.968-26.387,72.624-66.384,93.758
		c-9.908,5.236-24.015,24.015-13.092,38.199c9.882,12.856,32.599,6.822,39.281-2.185c25.098-33.833,69.851-91.677,92.364-77.604
		c27.325,17.085-25.133,135.361-60.711,191.118c-10.275,16.108-5.181,40.72,7.646,45.844c21.83,8.725,30.893-12.873,32.736-24.011
		c10.915-65.49,58.329-181.103,84.529-187.658c36.141-9.024,22.248,89.21,18.254,105.792c-2.671,11.081,5.547,25.193,17.913,25.931
		c13.799,0.802,20.353-14.798,17.93-25.931c-8.09-37.024-0.086-93.49,28.631-102.027c42.303-12.571,51.895,49.799,55.702,86.248
		c1.886,17.968,16.41,31.802,23.724,29.976c21.821-5.462,24.015-27.288,9.814-44.757c-20.934-25.759-41.108-94.21-20.182-100.525
		c57.664-17.401,157.963,137.559,167.333,154.221c5.778,10.275,23.119,20.53,34.034,9.614c9.301-9.293,12.007-25.098-6.546-37.113
		c-30.739-19.88-156.82-141.143-142.645-178.889c2.176-5.812,11.452-20.234,27.095-7.549c9.191,7.454,23.375-3.294,26.301-10.237
		c2.927-6.925,0.606-23.204-10.931-26.121c-15.737-3.981-14.491-18.844-13.416-25.159
		C596.402,349.597,710.023,367.757,720.511,369.724z"></path>
</g>
</svg>
