<!--?xml version="1.0" encoding="utf-8"?-->
<!-- Generator: Adobe Illustrator 22.1.0, SVG Export Plug-In . SVG Version: 6.00 Build 0)  -->
<svg version="1.1" id="_x32_" xmlns="http://www.w3.org/2000/svg" xmlns:xlink="http://www.w3.org/1999/xlink" x="0px" y="0px" viewBox="0 0 800 797.239" style="enable-background:new 0 0 800 797.239;" xml:space="preserve">
<style type="text/css">
	.st0{fill:#3FBAC8;}
</style>
<g>
	<path class="st0" d="M767.011,486.589c-22.669-0.969-202.136-6.743-203.62-68.093c-0.344-14.216,5.495-41.24,46.305-48.144
		c19.787-3.323,23.443-22.615,21.195-33.455c-2.247-10.946-17.873-24.238-31.691-14.742c-45.693,31.347-57.597,13.345-63.339,0.516
		c-5.797-12.958-26.368-57.167,40.628-77.255c28.27-8.484,25.927-39.046,19.785-48.057c-6.161-9.066-31.787-11.271-47.219,8.268
		c-40.433,51.081-60.8,34.402-70.189,24.315C437.96,186.046,525.086,90.5,548.229,64.488c22.604-25.444,14.624-54.027,5.634-59.361
		c-8.98-5.344-50.897-11.334-59.361,50.876c-2.548,18.689-39.584,141.356-101.718,122.666c-12.624-3.775-36.777-5.301-34.702-45.832
		c0.612-11.636-7.151-20.399-13.249-20.496c-6.075-0.119-15.496,4.957-13.774,19.893c2.903,25.164-6.614,44.392-34.1,42.885
		c-27.615-1.516-45.241-58.746-48.445-71.597c-4.56-18.346-18.808-112.548-55.564-95.568
		c-33.928,11.292,13.882,81.072,31.077,107.408c23.508,35.939,11.034,97.17-5.376,101.105c-6.613,1.593-17.422,13.787-30.907-6.312
		c-9.204-13.776-25.239-9.807-30.282-2.313c-5,7.41-10.613,20.379,5.001,37.336c9.84,10.68,8.775,30.864,4.806,42.122
		c-7.817,22.303-45.993,9.582-96.884-17.99c-12.006-6.496-21.615-0.442-23.599,8.452c-1.952,8.764,3.092,29.594,14.244,31.067
		c85.69,11.378,91.347,44.95,90.455,57.209c-0.882,12.077-3.775,27.325-25.379,31.057c-26.649,4.614-49.081,11.345-40.579,35.853
		c7.114,20.55,36.739,13.194,48.988,4.71c10.474-7.248,44.295-8.495,49.94,14.141c16.851,67.34-139.007,103.504-153.907,106.397
		c-10.151,1.979-38.514,10.205-24.937,33.896c3.404,18.7,34.992,10.355,42.982,4.581c11.152-8.066,137.507-97.59,168.392-66.953
		c21.937,21.744,6.797,55.402-26.637,69.834c-8.044,3.462-22.153,18.56-9.894,30.808c7.539,9.431,26.69,2.355,32.035-4.698
		c22.637-28.283,28.326-38.412,54.736-35.616c10.044,1.441,13.819,25.25-6.614,53.274c-13.474,40.283-78.512,79.855-58.726,101.062
		c45.252,28.283,50.909-59.36,97.073-107.418c5.657-11.796,23.53-11.603,31.573-5.656c16.26,12.022,15.883,38.164,2.904,57.875
		c-12.711,19.336-1.441,32.046,5.571,34.702c13.668,5.195,21.131-8.258,24.035-19.077c4.957-18.356,6.849-26.292,16.259-28.97
		c19.787-5.646,17.668,36.047,19.346,72.898c-1.215,22.035,6.806,37.112,13.883,42.295c19.787,14.13,51.349-8.475,20.378-50.392
		c-13.97-18.894-13.797-93.783,11.754-100.031c27.228-16.378,64.243,70.62,75.275,89.642c25.465,43.811,51.832,34.4,60.318,21.206
		c11.312-16.958,0.688-32.724-9.915-40.54c-48.058-36.735-55.112-49.93-66.404-86.686c-8.485-36.734,19.582-68.49,38.638-45.219
		c12.711,15.539,32.013,28.755,38.154,22.615c9.893-9.905,2.527-29.864-28.272-39.574c-26.841-8.495-5.344-35.197-3.01-42.735
		c15.604-50.198,183.716,12.743,206.104,20.098c18.711,6.173,39.434-2.559,42.197-21.356
		C800.337,500.354,782.733,487.255,767.011,486.589z"></path>
</g>
</svg>
