<!--?xml version="1.0" encoding="utf-8"?-->
<!-- Generator: Adobe Illustrator 22.1.0, SVG Export Plug-In . SVG Version: 6.00 Build 0)  -->
<svg version="1.1" id="_x31_1" xmlns="http://www.w3.org/2000/svg" xmlns:xlink="http://www.w3.org/1999/xlink" x="0px" y="0px" viewBox="0 0 734.143 800" style="width: 459px;" xml:space="preserve">
<style type="text/css">
	.st0{fill:#3FBAC8;}
</style>
<g>
	<path class="st0" d="M701.171,92.146c13.304,0,24.073-10.787,24.073-24.084c0-13.293-10.77-24.074-24.073-24.074
		c-13.293,0-24.08,10.781-24.08,24.074C677.092,81.359,687.878,92.146,701.171,92.146z"></path>
	<path class="st0" d="M291.97,720.154c-10.806,0-19.569,8.763-19.569,19.565c0,10.811,8.763,19.564,19.569,19.564
		c10.806,0,19.554-8.753,19.554-19.564C311.524,728.918,302.776,720.154,291.97,720.154z"></path>
	<path class="st0" d="M241.167,664.173c-7.436,0-13.457,6.031-13.457,13.467c0,7.425,6.021,13.456,13.457,13.456
		c7.43,0,13.457-6.032,13.457-13.456C254.624,670.204,248.598,664.173,241.167,664.173z"></path>
	<path class="st0" d="M659.54,371.531c8.232,0,14.913-6.68,14.913-14.912c0-8.232-6.68-14.902-14.913-14.902
		c-8.232,0-14.902,6.67-14.902,14.902C644.638,364.851,651.308,371.531,659.54,371.531z"></path>
	<path class="st0" d="M613.869,63.077c7.201,0,13.043-5.842,13.043-13.048c0-7.2-5.842-13.043-13.043-13.043
		c-7.201,0-13.038,5.843-13.038,13.043C600.831,57.235,606.669,63.077,613.869,63.077z"></path>
	<path class="st0" d="M43.619,124.502c22.578-19.747-8.472-53.622-28.221-33.859C-4.36,110.392,20.163,145.031,43.619,124.502z"></path>
	<path class="st0" d="M610.866,617.614c-11.291,11.644,9.488,23.603,16.924,17.459C641.896,623.446,622.147,605.971,610.866,617.614
		z"></path>
	<path class="st0" d="M681.412,429.299c-33.061-2.553-98.771,8.457-79.028-41.958c11.301-15.908,26.816-24.359,5.081-50.317
		c-34.701-46.012,33.026-30.498,24.563-68.585c-3.329-16.255-38.091,9.871-44.188-28.615c-6.456-16.929,8.824-35.757,34.22-44.23
		c20.055-6.686,16.479-21.786,2.115-19.044c-44.445,8.457-29.625-10.586,8.466-33.874c18.6-11.358,12.027-29.604,10.582-31.744
		c-8.457-8.462-21.853-0.542-35.978,10.592c-26.815,21.127-66.578,54.28-82.464,35.432c-29.626-33.859,42.335-70.546,14.115-90.315
		c-32.449-15.515-32.664,58.82-61.007,51.41c-14.641-3.83-21.077-11.255-24.809-18.149c-3.728-6.899-4.79-13.247-8.728-14.907
		c-11.199-4.744-12.736,7.952-24.124,12.808c-3.789,1.614-8.677,2.365-15.382,1.297c-31.045-1.403-42.836-16.413-49.874-28.771
		c-8.804-15.454,0.486-61.537-26.315-57.309c-26.822,0-16.924,26.326-7.681,52.544c13.324,37.77-53.182,72.374-64.473,20.156
		c-4.469-20.647-21.587-21.301-26.944-17.97c-14.37,8.987,1.395,20.84,7.885,36.611c6.548,15.908-4.413,23.225-27.316,25.778
		c-16.934,1.89-57.595-59.382-68.677-71.49c-29.671-32.403-35.586-70.347-59.271-51.732c-26.336,20.692,21.97,45.2,38.573,63.963
		c12.327,13.942,62.558,56.441,60.439,89.559c-3.524,17.685-27.726,30.329-41.621,12.037c-26.811-35.279-53.626-33.854-62.089-4.228
		c-6.42,22.454,15.526,31.029,43.74,45.149c28.225,14.11,9.887,73.38-28.215,64.913c-24.948-5.546-43.752-26.811-50.809-8.473
		c-2.814,14.115,26.188,15.143,39.518,19.764c36.682,12.7,26.81,36.677,26.33,47.422c-0.48,10.734-9.289,34.859-21.878,42.111
		c-13.956,8.079-35.503,0.726-52.212-1.905c-15.091-2.395-33.619,9.851-32.026,25.775c2.115,21.178,22.379,21.01,38.097,16.934
		c16.949-4.371,37.673-14.692,49.69-14.161c21.046,0.935,35.748,15.05,37.959,28.434c7.185,11.072,10.015,42.117-11.654,51.487
		c-10.76,4.653-15.591,15.398-12.501,25.254c9.53,19.809,27.822,15.193,36.939,1.01c13.221-20.58,36.743-13.058,47.727,13.804
		c18.175,38.991-93.123,76.199-55.036,112.172c46.565,35.982,51.58-64.724,99.481-78.304c9.959-2.884,23.002-3.181,32.745,3.902
		c27.525,20.034-21.387,39.793-1.63,52.023c18.717,11.587,7.523-38.577,43.679-33.915c9.035,2.364,19.269,9.994,20.903,15.652
		c4.233,14.662-25.229,70.792,3.774,72.39c28.572,5.286,9.877-62.181,24.61-75.495c4.918-4.438,0.081-16.218,29.784-6.868
		c50.333,18.354,58.08,239.904,105.839,207.43c35.268-23.992-73.252-156.642-55.506-218.701c1.884-6.598,9.412-19.764,26.489-16.419
		c23.563,4.597,41.13,59.245,54.407,50.283c13.288-8.983-38.092-76.21,15.53-90.325c31.04-4.223,36.683,35.284,59.255,2.829
		c10.811-15.535-35.273-23.997-27.689-45.782c20.632-33.24,65.357,18.752,91.187,31.672c33.869,16.934,65.924,0.725,73.375-16.928
		C740.677,457.509,718.1,432.119,681.412,429.299z"></path>
</g>
</svg>
