<!--?xml version="1.0" encoding="utf-8"?-->
<!-- Generator: Adobe Illustrator 22.1.0, SVG Export Plug-In . SVG Version: 6.00 Build 0)  -->
<svg version="1.1" id="_x33_" xmlns="http://www.w3.org/2000/svg" xmlns:xlink="http://www.w3.org/1999/xlink" x="0px" y="0px" viewBox="0 0 800 702.838" style="enable-background:new 0 0 800 702.838;" xml:space="preserve">
<style type="text/css">
	.st0{fill:#3FBAC8;}
</style>
<g>
	<path class="st0" d="M764.461,384.646c12.173,2.265,34.985-4.563,33.467-26.634c-1.529-22.058-23.979-28.816-33.467-28.127
		c-13.777,0.988-99.638,32.69-110.851-30.542c-2.488-14.093-0.195-40.968,41.566-51.083c19.748-4.781,20.127-22.818,16.041-32.474
		c-4.075-9.655-21.927-20.437-34.479-11.046c-43.107,32.347-58.176,16.427-65.917,4.966c-7.731-11.46-21.191-58.692,22.161-79.211
		c14.128-6.701,34.507-32.288,11.409-52.486c-18.248-15.966-37.151,4.61-43.347,25.083c-12.725,42.048-45.635,43.358-64.147,37.277
		c-51.365-16.886-33.077-45.117-15.817-70.59c8.788-12.989-1.384-30.404-11.041-34.495c-9.666-4.081-27.517-4.943-32.472,16.07
		c-3.616,15.299,0.925,48.841-61.579,36.542c-14.051-2.759-57.055-2.277-80.337,1.977c-32.013,5.862-37.294-55.199-40.588-65.865
		c-4.655-15.024-24.41-26.783-41.078-20.542c-18.254,6.862-29.317,35.852-9.121,57.061c35.882,37.622,16.443,56.255,0.379,70.072
		c-7.339,6.334-33.155,22.104-44.691-4.667c-8.046-18.644-37.451-26.771-50.635-7.495c-5.834,8.541-9.035,27.749,13.184,38.532
		c25.076,12.184,13.828,43.312,6.075,54.761c-7.73,11.46-35.524,51.278-56.773,28.404c-13.184-14.207-38.542-26.37-50.703-9.139
		c-19.57,27.714,16.218,43.657,31.897,44.807c21.841,1.585,30.939,26.231,28.065,40.266c-2.879,13.988-6.178,40.955,4.552,79.831
		c13.736,49.669-60.237,53.957-82.768,57.175c-31.944,4.575-51.726,42.61-35.858,61.462c19.949,23.759,45.703,21.472,59.313,13.701
		c31.944-18.252,55.25-59.071,99.786-24.138c31.916,25.047,16.358,49.324-32.128,89.613c-12.034,9.978-4.149,30.025,4.512,35.68
		c8.644,5.632,27.467,3.736,34.462-10.242c25.167-50.348,52.099-40.956,65.859-42.347c35.255-3.54,76.418,24.301,58.078,49.68
		c-19.771,27.393-11.179,41.555-1.523,45.647c9.661,4.103,23.954-10.254,25.868-25.864c2.857-23.37,19.438-30.243,33.456-27.381
		c14.024,2.875,16.731,15.208,9.65,30.232c-6.765,14.334-8.121,50.382,22.295,51.922c28.92,1.437,32.547-36.83,27.662-51.922
		c-5.869-18.059,15.259-28.933,29.259-31.807c14.042-2.862,52.762-19,79.079-34.323c7.455-4.344,28.018-0.391,41.064,22.829
		c8.058,14.333,33.709,18.173,45.635,6.839c20.673-19.633,7.695-44.784-6.851-52.474c-27.018-14.311-10.668-37.577,0-52.474
		c10.798-15.07,26.805-36.462,50.347-21.139c30.415,19.759,40.197,4.356,41.077-6.103c1.512-18.266-15.875-20.277-31.956-24.334
		c-21.915-5.553-17.162-37.152-8.926-48.291C689.923,358.784,749.851,381.899,764.461,384.646z"></path>
</g>
</svg>
