<!--?xml version="1.0" encoding="utf-8"?-->
<!-- Generator: Adobe Illustrator 22.1.0, SVG Export Plug-In . SVG Version: 6.00 Build 0)  -->
<svg version="1.1" id="_x34_" xmlns="http://www.w3.org/2000/svg" xmlns:xlink="http://www.w3.org/1999/xlink" x="0px" y="0px" viewBox="0 0 748.842 800" style="enable-background:new 0 0 748.842 800;" xml:space="preserve">
<style type="text/css">
	.st0{fill:#3FBAC8;}
</style>
<g>
	<path class="st0" d="M726.597,424.565c10.852,2.04,21.022-4.068,20.341-14.243c-0.631-9.478-11.445-15.206-19.905-14.571
		c-12.292,0.892-98.743,18.639-108.74-37.729c-2.218-12.572-0.179-36.519,37.048-45.526c17.604-4.274,17.938-20.329,14.305-28.958
		c-3.638-8.618-19.551-18.229-30.735-9.827c-38.426,28.814-60.76,23.998-67.655,13.792c-6.911-10.216-19.576-41.93,22.457-62.269
		c42.078-20.361,32.277-46.367,25.754-52.885c-6.517-6.528-25.754-16.272-54.22,24.408c-15.626,22.308-37.765,17.707-47.869,10.646
		c-39.691-27.708-17.316-52.116,53.878-96.852c12.409-7.809,12.199-38.651-7.372-27.698c-10.642,5.953-34.256,38.62-42.944,21.242
		c-3.622-7.224,33.681-63.028,36.612-67.341c7.838-11.559,12.055-25.443,1.807-32.995c-8.577-6.333-24.028,4.621-37.067,29.839
		c-32.406,62.71-38.246,119.99-90.725,137.707c-12.076,4.068-36.499-3.023-35.335-33.261c0.322-8.484-7.399-14.715-13.352-14.715
		c-5.974,0-15.227,3.792-13.372,14.715c3.166,18.721-6.307,33.631-34.65,33.261c-29.003-0.379-46.08-43.784-49.026-53.304
		c-4.145-13.383-18.291-36.652-33.148-31.079c-16.278,6.107-7.527,33.108,9.622,52.772c23.797,27.307,5.225,63.735-13.26,67.711
		c-7.527,1.619-14.668,13.751-34.619-3.966c-10.964-9.734-24.813-39.224-45.142-24.295c-18.619,13.649-3.038,40.413,12.921,55.589
		c12.85,12.193,12.85,27.113,10.14,35.249c-3.904,11.701-13.075,27.184-32.396,14.089c-11.573-7.839-31.775-1.004-35.408,7.603
		c-3.648,8.618,1.363,29.829,18.983,31.202c19.459,1.496,10.855,28.476,4.596,35.146c-29.731,31.806-81.934,17.594-105.681,11.047
		c-13.638-3.751-24.521,12.336-24.521,22.276c0,9.93,10.82,25.812,24.521,22.246c54.912-14.232,105.762,8.136,105.681,41.152
		c-0.19,84.301-111.255,99.117-130.734,104.876c-13.439,3.955-17.943,20.329-14.3,28.947c3.638,8.597,19.31,17.891,30.73,9.837
		c15.693-11.087,110.721-89.004,150.423-57.854c28.452,22.328,8.705,61.511-40.97,87.754c-12.318,6.517-14.941,30.362-7.271,35.443
		c18.301,12.215,29.644,5.985,36.617-6.086c30.506-52.894,30.506-65.078,76.432-52.3c13.306,3.709,31.893,21.242,12.239,35.608
		c-11.276,8.269-13.418,30.925,4.878,41.1c16.866,9.376,32.22-10.759,33.906-24.653c2.552-20.872,22.047-16.621,34.788-15.944
		c51.382,2.767,18.762,81.267,12.66,117.879C341.583,794.915,365.961,798,371.92,798c16.276,0,52.888-20.341,30.515-61.02
		c-12.742-23.158-10.759-92.744,29.131-95.51c12.732-0.892,27.442-9.448,34.784,15.944c3.894,13.444,20.329,17.943,28.947,14.305
		c8.602-3.658,22.973-22.143,12.711-32.676c-19.156-19.674,2.982-29.369,9.37-33.682c6.38-4.313,34.174-0.389,46.506,19.9
		c33.569,55.24,63.72,27.114,66.435,6.762c3.069-23.004-18.983-31.181-44.742-40.67c-25.576-9.416-20.591-35.659-16.283-42.042
		c4.319-6.384,27.133-33.897,46.577-18.137c11.415,9.263,29.024-4.089,32.662-12.706c3.642-8.616,0.743-28.845-13.577-32.451
		c-19.551-4.96-18.009-23.425-16.662-31.274C626.926,404.215,713.568,422.126,726.597,424.565z"></path>
</g>
</svg>
