<!--?xml version="1.0" encoding="utf-8"?-->
<!-- Generator: Adobe Illustrator 22.1.0, SVG Export Plug-In . SVG Version: 6.00 Build 0)  -->
<svg version="1.1" id="_x35_" xmlns="http://www.w3.org/2000/svg" xmlns:xlink="http://www.w3.org/1999/xlink" x="0px" y="0px" viewBox="0 0 734.14 800" style="enable-background:new 0 0 734.14 800;" xml:space="preserve">
<style type="text/css">
	.st0{fill:#3FBAC8;}
</style>
<g>
	<path class="st0" d="M681.409,429.29c-33.061-2.523-98.77,8.487-79.028-41.937c11.301-15.922,26.815-24.379,5.081-50.322
		c-34.701-46.023,33.026-30.487,24.563-68.595c-3.329-16.249-38.091,9.878-44.188-28.588c-6.455-16.934,8.824-35.778,34.22-44.235
		c20.054-6.7,16.479-21.795,2.115-19.038c-44.445,8.447-29.625-10.611,8.466-33.878c18.6-11.367,12.027-29.62,10.582-31.764
		c-8.457-8.447-21.853-0.531-35.978,10.592c-26.815,21.132-66.577,54.296-82.464,35.451c-29.626-33.858,42.335-70.555,14.115-90.318
		c-32.449-15.546-32.664,58.82-61.006,51.384c-14.641-3.83-21.077-11.235-24.809-18.139c-3.728-6.894-4.79-13.227-8.728-14.912
		c-11.199-4.719-12.736,7.956-24.124,12.797c-3.789,1.624-8.677,2.381-15.382,1.308c-31.045-1.389-42.836-16.423-49.874-28.762
		c-8.804-15.453,0.486-61.537-26.315-57.288c-26.822,0-16.924,26.3-7.681,52.509c13.324,37.78-53.182,72.384-64.473,20.172
		c-4.469-20.652-21.587-21.286-26.944-17.956c-14.37,8.988,1.395,20.825,7.885,36.616c6.547,15.892-4.413,23.216-27.316,25.769
		c-16.934,1.869-57.594-59.393-68.676-71.506C111.78,26.25,105.865-11.693,82.18,6.915c-26.336,20.703,21.97,45.186,38.572,63.989
		c12.327,13.922,62.558,56.43,60.439,89.543c-3.524,17.67-27.726,30.314-41.621,12.021c-26.811-35.247-53.626-33.858-62.089-4.228
		c-6.42,22.459,15.525,31.049,43.74,45.154c28.225,14.115,9.887,73.395-28.214,64.919c-24.947-5.536-43.751-26.822-50.809-8.468
		c-2.813,14.105,26.188,15.116,39.518,19.754c36.682,12.695,26.809,36.698,26.33,47.432c-0.48,10.735-9.289,34.849-21.878,42.131
		c-13.956,8.038-35.503,0.715-52.211-1.94c-15.091-2.401-33.619,9.856-32.026,25.789c2.115,21.163,22.378,21.02,38.097,16.935
		c16.949-4.382,37.673-14.698,49.69-14.177c21.045,0.95,35.748,15.054,37.959,28.445c7.185,11.061,10.015,42.131-11.654,51.477
		c-10.76,4.678-15.591,15.412-12.501,25.268c9.53,19.814,27.822,15.198,36.939,1.012c13.221-20.571,36.743-13.074,47.727,13.788
		c18.175,38.997-93.123,76.215-55.036,112.198c46.564,35.982,51.58-64.735,99.481-78.318c9.959-2.9,23.002-3.176,32.745,3.912
		c27.525,20.029-21.387,39.772-1.63,52.008c18.717,11.603,7.523-38.567,43.679-33.899c9.035,2.339,19.269,9.999,20.903,15.648
		c4.232,14.676-25.229,70.779,3.773,72.384c28.572,5.3,9.877-62.171,24.61-75.5c4.918-4.442,0.082-16.219,29.784-6.863
		c50.332,18.353,58.08,239.907,105.838,207.428c35.268-23.982-73.252-156.626-55.506-218.715
		c1.884-6.568,9.412-19.753,26.489-16.403c23.563,4.606,41.13,59.249,54.407,50.281c13.288-8.998-38.092-76.203,15.53-90.308
		c31.039-4.249,36.682,35.267,59.254,2.798c10.811-15.535-35.273-23.972-27.689-45.766c20.632-33.225,65.357,18.761,91.187,31.661
		c33.869,16.934,65.924,0.715,73.374-16.904C740.674,457.52,718.096,432.109,681.409,429.29z"></path>
</g>
</svg>
