<!--?xml version="1.0" encoding="utf-8"?-->
<!-- Generator: Adobe Illustrator 22.1.0, SVG Export Plug-In . SVG Version: 6.00 Build 0)  -->
<svg version="1.1" id="_x36_" xmlns="http://www.w3.org/2000/svg" xmlns:xlink="http://www.w3.org/1999/xlink" x="0px" y="0px" viewBox="0 0 800 790.118" style="enable-background:new 0 0 800 790.118;" xml:space="preserve">
<style type="text/css">
	.st0{fill:#3FBAC8;}
</style>
<g>
	<path class="st0" d="M714.084,401.033c9.841,1.839,19.038-3.675,18.431-12.89c-0.57-8.59-10.365-13.773-18.026-13.216
		c-11.129,0.809-89.453,16.891-98.512-34.172c-2.014-11.381-0.156-33.078,33.561-41.245c15.939-3.868,16.26-18.423,12.959-26.231
		c-3.302-7.799-17.714-16.509-27.841-8.912c-34.811,26.111-46.979,13.253-53.233,4.001c-6.255-9.248-19.002-28.111,12.286-47.913
		c10.66-6.746,14.155-21.948,4.323-33.003c-5.537-6.237-23.866-9.359-30.911,6.428c-10.844,24.276-38.435,24.395-47.696,18.132
		c-9.253-6.245-45.453-14.739,23.333-99.5c7.983-9.827,1.664-29.863-6.135-33.165c-7.809-3.297-24.952,1.338-28.999,18.289
		c-16.463,68.929-49.471,76.281-60.794,73.964c-11.321-2.317-33.082-2.727-32.024-30.121c0.303-7.675-6.696-13.331-12.104-13.331
		c-5.39,0-13.768,3.439-12.095,13.331c2.87,16.951-5.73,30.462-31.408,30.121c-25.909-0.35-40.69-18.881-50.511-45.913
		c-9.841-27.021-18.983-67.226-36.172-59.845c-14.459,6.194-8.618,23.673,12.425,63.129c29.477,55.275,5.914,72.056-1.646,76.976
		c-5.849,3.803-20.445,9.598-33.193-5.233c-8.655-10.062-25.651-6.507-31.538-0.598c-5.895,5.899-13.032,16.246,2.354,28.939
		c9.74,8.025,8.094,24.731,1.841,33.961c-6.255,9.261-14.569,22.658-32.256,11.106c-22.882-14.945-46.225-19.245-52.359-2.051
		c-8.324,23.288,24.813,36.26,37.47,37.189c17.639,1.274,23.333,14.403,20.261,25.467c-0.653,2.359-3.063,20.464-12.895,17.194
		c-3.32-1.104-11.882-1.849-12.701,6.347c-0.469,4.763,2.033,10.121,10.852,10.852c9.833,0.814,6.807,21.686,5.528,25.181
		c-4.405,12.063-14.973,18.132-30.838,19.576c-12.775,1.169-52.819-8.595-57.739,13.52c-5.142,23.159,33.247,19.875,44.983,14.73
		c14.964-6.562,22.24-10.094,36.091-9.818c61.427,1.223-24.557,65.098-107.534,91.066c-12.122,3.794-27.582,10.885-20.206,28.088
		c4.58,10.705,24.971,14.669,35.068,7.055c48.451-36.536,100.314-80.623,136.276-52.406c25.761,20.225,14.706,38.651-30.305,62.43
		c-11.147,5.9-8.26,23.039-2.337,28.94c5.886,5.908,21.089,7.537,28.925-2.355c28.263-35.621,52.397-35.216,62.422-30.296
		c28.032,13.732,14.521,66.556-25.513,129.29c-11.562,18.132-16.169,35.91-1.729,41.677c18.431,7.367,26.166-9.584,28.254-22.119
		c12.288-73.702,41.763-113.011,71.241-120.378c40.679-10.168,33.322,42.155,28.842,60.845c-2.998,12.457,6.245,28.34,20.169,29.168
		c15.526,0.906,22.902-16.651,20.161-29.168c-9.106-41.677,12.618-54.287,23.939-56.619c11.322-2.304,33.295,2.654,43.458,42.629
		c3.126,12.31,21.954,29.868,30.369,28.82c19.654-2.456,23.334-25.794,7.367-45.453c-23.545-28.998-27.021-51.591-3.467-58.692
		c64.885-19.59,119.231,94.234,129.763,112.979c6.502,11.579,26.019,23.103,38.307,10.82c10.466-10.457,13.519-28.249-7.376-41.774
		c-34.582-22.372-117.917-98.263-101.98-140.744c2.456-6.531,12.895-22.772,30.508-8.48c10.347,8.375,26.294-3.729,29.587-11.519
		c3.311-7.809,0.671-26.134-12.315-29.418c-17.686-4.479-16.279-21.199-15.075-28.318
		C623.795,382.611,702.293,398.825,714.084,401.033z"></path>
	<path class="st0" d="M277.144,16.71c0,8.138-6.586,14.743-14.735,14.743c-8.13,0-14.733-6.604-14.733-14.743
		c0-8.136,6.603-14.735,14.733-14.735C270.558,1.975,277.144,8.574,277.144,16.71z"></path>
	<path class="st0" d="M370.513,43.735c0-6.788,5.51-12.283,12.288-12.283c6.787,0,12.288,5.495,12.288,12.283
		c0,6.783-5.5,12.288-12.288,12.288C376.023,56.023,370.513,50.518,370.513,43.735z"></path>
	<path class="st0" d="M567.058,46.19c0,8.145-6.604,14.748-14.734,14.748c-8.148,0-14.733-6.603-14.733-14.748
		c0-8.134,6.585-14.738,14.733-14.738C560.454,31.452,567.058,38.057,567.058,46.19z"></path>
	<path class="st0" d="M694.807,208.332c0-2.712,2.198-4.91,4.921-4.91c2.713,0,4.911,2.198,4.911,4.91
		c0,2.723-2.198,4.921-4.911,4.921C697.005,213.254,694.807,211.055,694.807,208.332z"></path>
	<path class="st0" d="M798,318.888c0,12.219-9.896,22.119-22.111,22.119c-12.214,0-22.11-9.9-22.11-22.119
		c0-12.205,9.896-22.106,22.11-22.106C788.104,296.782,798,306.683,798,318.888z"></path>
	<path class="st0" d="M139.581,350.839c0,8.388-6.805,15.199-15.202,15.199c-8.396,0-15.194-6.811-15.194-15.199
		c0-8.397,6.797-15.204,15.194-15.204C132.776,335.635,139.581,342.442,139.581,350.839z"></path>
	<path class="st0" d="M661.946,525.264c0-11.023,8.949-19.958,19.976-19.958c11.018,0,19.948,8.935,19.948,19.958
		c0,11.028-8.93,19.962-19.948,19.962C670.895,545.226,661.946,536.292,661.946,525.264z"></path>
	<path class="st0" d="M532.669,684.951c0-8.135,6.595-14.735,14.743-14.735c8.14,0,14.734,6.599,14.734,14.735
		c0,8.148-6.594,14.753-14.734,14.753C539.264,699.703,532.669,693.099,532.669,684.951z"></path>
	<path class="st0" d="M360.682,753.75c0,13.567-10.981,24.561-24.566,24.561c-13.548,0-24.557-10.995-24.557-24.561
		c0-13.584,11.009-24.574,24.557-24.574C349.701,729.175,360.682,740.166,360.682,753.75z"></path>
	<path class="st0" d="M218.199,775.855c0-6.778,5.491-12.273,12.269-12.273c6.797,0,12.288,5.495,12.288,12.273
		c0,6.783-5.491,12.288-12.288,12.288C223.69,788.143,218.199,782.638,218.199,775.855z"></path>
	<path class="st0" d="M183.81,643.195c0,6.778-5.51,12.274-12.288,12.274c-6.805,0-12.278-5.496-12.278-12.274
		c0-6.787,5.473-12.283,12.278-12.283C178.301,630.912,183.81,636.408,183.81,643.195z"></path>
	<path class="st0" d="M129.749,628.456c0,9.491-7.707,17.194-17.199,17.194s-17.19-7.703-17.19-17.194
		c0-9.501,7.698-17.198,17.19-17.198S129.749,618.956,129.749,628.456z"></path>
	<path class="st0" d="M16.735,490.866c0,4.075-3.284,7.377-7.368,7.377c-4.065,0-7.367-3.302-7.367-7.377
		c0-4.07,3.302-7.367,7.367-7.367C13.45,483.499,16.735,486.796,16.735,490.866z"></path>
</g>
</svg>
