<!--?xml version="1.0" encoding="utf-8"?-->
<!-- Generator: Adobe Illustrator 22.1.0, SVG Export Plug-In . SVG Version: 6.00 Build 0)  -->
<svg version="1.1" id="_x38_" xmlns="http://www.w3.org/2000/svg" xmlns:xlink="http://www.w3.org/1999/xlink" x="0px" y="0px" viewBox="0 0 706.477 800" style="width: 442px;" xml:space="preserve">
<style type="text/css">
	.st0{fill:#3FBAC8;}
</style>
<g>
	<path class="st0" d="M35.199,260.136c0,9.225-7.488,16.712-16.726,16.712c-9.225,0-16.707-7.487-16.707-16.712
		c0-9.224,7.482-16.712,16.707-16.712C27.712,243.424,35.199,250.912,35.199,260.136z"></path>
	<path class="st0" d="M116.893,206.277c0,4.105-3.314,7.44-7.421,7.44c-4.106,0-7.431-3.334-7.431-7.44
		c0-4.102,3.324-7.431,7.431-7.431C113.578,198.846,116.893,202.175,116.893,206.277z"></path>
	<path class="st0" d="M135.465,150.566c0,10.256-8.306,18.572-18.572,18.572c-10.247,0-18.552-8.316-18.552-18.572
		c0-10.251,8.306-18.562,18.552-18.562C127.158,132.003,135.465,140.314,135.465,150.566z"></path>
	<path class="st0" d="M562.608,83.714c0-10.261,8.306-18.567,18.582-18.567c10.237,0,18.543,8.306,18.543,18.567
		c0,10.247-8.306,18.567-18.543,18.567C570.914,102.281,562.608,93.96,562.608,83.714z"></path>
	<path class="st0" d="M521.754,9.422c0,4.105-3.334,7.44-7.431,7.44c-4.116,0-7.431-3.335-7.431-7.44
		c0-4.097,3.315-7.422,7.431-7.422C518.42,2,521.754,5.325,521.754,9.422z"></path>
	<path class="st0" d="M607.173,369.698c0-8.198,6.658-14.857,14.853-14.857c8.212,0,14.861,6.659,14.861,14.857
		c0,8.212-6.649,14.861-14.861,14.861C613.831,384.56,607.173,377.911,607.173,369.698z"></path>
	<path class="st0" d="M625.754,252.716c0,7.181-5.83,12.992-13.007,12.992c-7.176,0-13.015-5.812-13.015-12.992
		c0-7.186,5.839-13.006,13.015-13.006C619.925,239.71,625.754,245.53,625.754,252.716z"></path>
	<path class="st0" d="M38.896,419.848c0,9.224-7.473,16.712-16.708,16.712c-9.229,0-16.707-7.487-16.707-16.712
		c0-9.235,7.478-16.721,16.707-16.721C31.423,403.127,38.896,410.613,38.896,419.848z"></path>
	<path class="st0" d="M131.773,594.406c0,7.186-5.84,13.002-13.006,13.002c-7.186,0-13.016-5.816-13.016-13.002
		c0-7.171,5.83-12.986,13.016-12.986C125.934,581.419,131.773,587.234,131.773,594.406z"></path>
	<path class="st0" d="M131.773,631.555c0-7.172,5.802-13.006,12.987-13.006c7.167,0,12.996,5.834,12.996,13.006
		c0,7.186-5.829,13.001-12.996,13.001C137.575,644.555,131.773,638.74,131.773,631.555z"></path>
	<path class="st0" d="M139.185,728.125c0,11.282-9.145,20.426-20.418,20.426c-11.302,0-20.428-9.144-20.428-20.426
		c0-11.283,9.126-20.423,20.428-20.423C130.04,707.702,139.185,716.842,139.185,728.125z"></path>
	<path class="st0" d="M161.487,748.551c0-6.155,4.963-11.141,11.132-11.141c6.14,0,11.141,4.986,11.141,11.141
		c0,6.154-5,11.151-11.141,11.151C166.45,759.702,161.487,754.706,161.487,748.551z"></path>
	<path class="st0" d="M313.753,757.842c0,5.119-4.153,9.281-9.276,9.281c-5.133,0-9.296-4.162-9.296-9.281
		c0-5.127,4.163-9.291,9.296-9.291C309.6,748.551,313.753,752.715,313.753,757.842z"></path>
	<path class="st0" d="M418.911,780.129c0,9.875-8.014,17.871-17.875,17.871c-9.879,0-17.865-7.996-17.865-17.871
		c0-9.874,7.986-17.87,17.865-17.87C410.897,762.259,418.911,770.255,418.911,780.129z"></path>
	<path class="st0" d="M368.348,86.153c0,4.444-3.608,8.043-8.053,8.043c-4.444,0-8.043-3.599-8.043-8.043
		c0-4.445,3.599-8.053,8.043-8.053C364.74,78.1,368.348,81.708,368.348,86.153z"></path>
	<path class="st0" d="M558.888,687.261c0-7.172,5.83-12.992,13.006-12.992c7.176,0,12.987,5.82,12.987,12.992
		c0,7.191-5.812,13.001-12.987,13.001C564.718,700.262,558.888,694.452,558.888,687.261z"></path>
	<path class="st0" d="M518.033,598.131c0-7.182,5.82-13.002,12.997-13.002c7.185,0,12.997,5.82,12.997,13.002
		c0,7.171-5.812,12.996-12.997,12.996C523.854,611.127,518.033,605.303,518.033,598.131z"></path>
	<path class="st0" d="M298.656,107.856c0-6.287,5.104-11.377,11.377-11.377c6.291,0,11.377,5.09,11.377,11.377
		c0,6.281-5.086,11.377-11.377,11.377C303.76,119.233,298.656,114.138,298.656,107.856z"></path>
	<path class="st0" d="M677.571,473.972c-19.853-0.838-177.026-5.881-178.326-59.638c-0.301-12.437,4.812-36.113,40.553-42.136
		c17.329-2.934,20.531-19.814,18.562-29.313c-1.968-9.583-15.653-21.223-27.754-12.921c-40.017,27.448-50.442,11.693-55.471,0.452
		c-5.076-11.325-23.092-50.05,35.581-67.647c24.758-7.426,22.706-34.211,17.328-42.089c-5.396-7.929-27.839-9.865-41.354,7.233
		c-35.41,44.758-53.247,30.132-61.47,21.303c-35.825-38.443,40.478-122.12,60.745-144.911c19.796-22.277,12.808-47.31,4.935-51.991
		c-7.864-4.68-44.574-9.902-51.986,44.57c-2.232,16.363-34.667,123.796-89.083,107.437c-11.056-3.314-32.208-4.671-30.391-40.133
		c0.537-10.204-6.263-17.885-11.603-17.974c-5.321-0.094-13.571,4.347-12.064,17.428c2.542,22.037-5.792,38.876-29.863,37.562
		c-24.185-1.333-39.621-51.44-42.427-62.708c-3.993-16.062-16.471-98.566-48.661-83.71c-29.713,9.907,12.158,71.034,27.217,94.088
		c20.587,31.455,9.663,85.076-4.709,88.55c-5.792,1.38-15.257,12.055-27.067-5.537c-8.062-12.05-22.103-8.579-26.52-2.025
		c-4.379,6.484-9.295,17.833,4.379,32.703c8.618,9.356,7.685,27.033,4.21,36.889c-6.847,19.532-40.279,8.381-84.85-15.751
		c-10.514-5.697-18.93-0.395-20.667,7.374c-1.709,7.69,2.707,25.942,12.474,27.227c75.045,9.968,79.999,39.365,79.218,50.092
		c-0.773,10.59-3.306,23.945-22.226,27.203c-23.338,4.036-42.984,9.946-35.539,31.399c6.23,17.997,32.176,11.545,42.903,4.125
		c9.173-6.352,38.792-7.431,43.737,12.375c14.758,58.993-121.739,90.674-134.788,93.207c-8.889,1.719-33.729,8.923-21.839,29.666
		c2.981,16.387,30.646,9.069,37.643,4.007c9.766-7.053,120.425-85.466,147.473-58.639c19.213,19.047,5.952,48.52-23.327,61.159
		c-7.045,3.047-19.402,16.27-8.665,26.996c6.602,8.25,23.375,2.062,28.056-4.116c19.825-24.764,24.806-33.654,47.936-31.192
		c8.796,1.253,12.102,22.104-5.792,46.647c-11.801,35.292-68.76,69.955-51.43,88.522c39.63,24.755,44.584-51.992,85.013-94.084
		c4.954-10.317,20.607-10.166,27.651-4.949c14.24,10.524,13.91,33.42,2.543,50.678c-11.132,16.933-1.262,28.069,4.879,30.405
		c11.97,4.545,18.506-7.246,21.049-16.707c4.342-16.1,5.998-23.031,14.239-25.386c17.329-4.949,15.473,31.563,16.943,63.848
		c-1.064,19.297,5.961,32.501,12.158,37.054c17.329,12.38,44.97-7.44,17.847-44.137c-12.234-16.557-12.083-82.137,10.293-87.604
		c23.845-14.338,56.262,61.856,65.924,78.503c22.302,38.377,45.394,30.127,52.825,18.572c9.907-14.862,0.603-28.659-8.683-35.505
		c-42.089-32.176-48.266-43.736-58.155-75.907c-7.431-32.19,17.15-59.992,33.838-39.625c11.132,13.618,28.037,25.202,33.414,19.81
		c8.665-8.664,2.214-26.138-24.759-34.666c-23.506-7.421-4.68-30.825-2.637-37.413c13.665-43.972,160.893,11.17,180.501,17.612
		c16.386,5.406,34.535-2.237,36.955-18.713C706.756,486.045,691.34,474.561,677.571,473.972z"></path>
</g>
</svg>
