<!--?xml version="1.0" encoding="utf-8"?-->
<!-- Generator: Adobe Illustrator 22.1.0, SVG Export Plug-In . SVG Version: 6.00 Build 0)  -->
<svg version="1.1" id="_x39_" xmlns="http://www.w3.org/2000/svg" xmlns:xlink="http://www.w3.org/1999/xlink" x="0px" y="0px" viewBox="0 0 779.55 800" style="enable-background:new 0 0 779.55 800;" xml:space="preserve">
<style type="text/css">
	.st0{fill:#3FBAC8;}
</style>
<g>
	<path class="st0" d="M490.43,39.014c0,12.259-9.938,22.199-22.209,22.199c-12.265,0-22.204-9.939-22.204-22.199
		c0-12.271,9.939-22.209,22.204-22.209C480.492,16.805,490.43,26.743,490.43,39.014z"></path>
	<path class="st0" d="M777.602,219.602c0,13.893-11.275,25.162-25.167,25.162c-13.893,0-25.168-11.27-25.168-25.162
		c0-13.898,11.275-25.174,25.168-25.174C766.326,194.428,777.602,205.704,777.602,219.602z"></path>
	<path class="st0" d="M525.962,70.088c0-4.894,3.965-8.875,8.87-8.875c4.911,0,8.876,3.981,8.876,8.875
		c0,4.911-3.966,8.886-8.876,8.886C529.927,78.974,525.962,74.999,525.962,70.088z"></path>
	<path class="st0" d="M549.636,16.805c0,8.177-6.627,14.805-14.805,14.805c-8.171,0-14.804-6.628-14.804-14.805
		C520.028,8.633,526.661,2,534.832,2C543.009,2,549.636,8.633,549.636,16.805z"></path>
	<path class="st0" d="M291.71,777.641c0,11.242-9.116,20.359-20.363,20.359c-11.231,0-20.341-9.117-20.341-20.359
		c0-11.247,9.111-20.346,20.341-20.346C282.594,757.295,291.71,766.394,291.71,777.641z"></path>
	<path class="st0" d="M129.254,144.098c0,16.365-13.249,29.614-29.598,29.614c-16.358,0-29.614-13.249-29.614-29.614
		c0-16.343,13.255-29.592,29.614-29.592C116.005,114.506,129.254,127.755,129.254,144.098z"></path>
	<path class="st0" d="M212.14,59.73c0,5.727-4.642,10.358-10.358,10.358c-5.727,0-10.363-4.631-10.363-10.358
		c0-5.728,4.636-10.358,10.363-10.358C207.499,49.372,212.14,54.003,212.14,59.73z"></path>
	<path class="st0" d="M10.836,321.728c0-4.899,3.977-8.876,8.876-8.876c4.9,0,8.893,3.977,8.893,8.876
		c0,4.905-3.993,8.881-8.893,8.881C14.813,330.609,10.836,326.633,10.836,321.728z"></path>
	<path class="st0" d="M28.605,272.88c0,7.354-5.979,13.333-13.322,13.333c-7.367,0-13.334-5.979-13.334-13.333
		c0-7.35,5.967-13.322,13.334-13.322C22.626,259.558,28.605,265.53,28.605,272.88z"></path>
	<path class="st0" d="M576.281,713.995c0-10.632,8.618-19.245,19.244-19.245c10.632,0,19.24,8.614,19.24,19.245
		c0,10.615-8.608,19.239-19.24,19.239C584.9,733.234,576.281,724.61,576.281,713.995z"></path>
	<path class="st0" d="M514.116,725.835c0-5.722,4.642-10.364,10.358-10.364c5.715,0,10.358,4.642,10.358,10.364
		c0,5.721-4.642,10.363-10.358,10.363C518.758,736.199,514.116,731.556,514.116,725.835z"></path>
	<path class="st0" d="M747.988,598.541c0,10.626-8.608,19.234-19.234,19.234c-10.632,0-19.257-8.608-19.257-19.234
		c0-10.632,8.625-19.251,19.257-19.251C739.38,579.29,747.988,587.909,747.988,598.541z"></path>
	<path class="st0" d="M700.621,536.365c0-7.36,5.962-13.322,13.328-13.322c7.36,0,13.317,5.962,13.317,13.322
		c0,7.355-5.956,13.317-13.317,13.317C706.583,549.682,700.621,543.72,700.621,536.365z"></path>
	<path class="st0" d="M83.515,672.741c1.348,6.404-2.745,12.668-9.155,14.017c-6.393,1.347-12.673-2.746-14.015-9.139
		c-1.353-6.404,2.741-12.69,9.15-14.038C75.904,662.238,82.174,666.343,83.515,672.741z"></path>
	<path class="st0" d="M164.523,734.369c2.533,12.008-5.157,23.781-17.159,26.304c-12.003,2.528-23.776-5.157-26.288-17.159
		c-2.516-12.002,5.157-23.78,17.16-26.304C150.238,714.688,162,722.367,164.523,734.369z"></path>
	<path class="st0" d="M352.718,775.258c-0.559,8.412-7.813,14.772-16.231,14.235c-8.412-0.555-14.793-7.83-14.246-16.242
		c0.56-8.4,7.83-14.781,16.242-14.234C346.883,759.571,353.27,766.842,352.718,775.258z"></path>
	<path class="st0" d="M744.044,438.685c11.835,2.203,34.044-4.463,32.556-25.912c-1.465-21.471-23.316-28.07-32.556-27.394
		c-13.412,0.973-96.946,31.823-107.853-29.709c-2.445-13.714-0.196-39.867,40.431-49.705c19.206-4.658,19.587-22.192,15.621-31.605
		c-3.988-9.391-21.337-19.894-33.546-10.738c-41.952,31.466-56.639,15.974-64.15,4.821c-7.539-11.14-20.621-57.114,21.566-77.097
		c13.736-6.517,33.563-31.393,11.085-51.063c-17.763-15.548-36.158,4.491-42.186,24.43c-12.361,40.906-44.402,42.181-62.406,36.264
		c-49.978-16.432-32.197-43.926-15.402-68.714c8.562-12.629-1.337-29.564-10.744-33.552c-9.391-3.965-26.785-4.81-31.6,15.626
		c-3.506,14.884,0.895,47.529-59.927,35.565c-13.647-2.69-55.504-2.22-78.177,1.936c-31.142,5.71-36.287-53.715-39.492-64.1
		c-4.53-14.62-23.741-26.069-39.96-19.978c-17.763,6.656-28.546,34.882-8.887,55.503c34.915,36.64,16.011,54.755,0.38,68.205
		c-7.143,6.146-32.265,21.511-43.496-4.552c-7.824-18.143-36.454-26.041-49.267-7.294c-5.678,8.305-8.792,26.991,12.812,37.507
		c24.402,11.845,13.462,42.142,5.934,53.294c-7.528,11.146-34.575,49.894-55.257,27.623c-12.837-13.814-37.501-25.648-49.347-8.876
		c-19.027,26.958,15.784,42.467,31.052,43.592c21.236,1.554,30.089,25.525,27.299,39.172c-2.792,13.641-6.013,39.883,4.441,77.708
		c13.35,48.316-58.619,52.494-80.56,55.638c-31.08,4.446-50.319,41.443-34.899,59.816c19.435,23.114,44.48,20.883,57.74,13.317
		c31.068-17.769,53.765-57.495,97.093-23.485c31.051,24.362,15.922,48.004-31.265,87.193c-11.7,9.714-4.039,29.212,4.39,34.71
		c8.407,5.497,26.75,3.663,33.546-9.95c24.497-48.999,50.699-39.867,64.082-41.209c34.312-3.45,74.351,23.653,56.505,48.357
		c-19.234,26.639-10.879,40.431-1.465,44.402c9.402,3.977,23.3-9.972,25.163-25.168c2.774-22.751,18.926-29.424,32.55-26.639
		c13.663,2.792,16.297,14.805,9.396,29.419c-6.583,13.959-7.903,49.037,21.7,50.515c28.133,1.42,31.673-35.823,26.913-50.515
		c-5.709-17.573,14.844-28.155,28.485-30.962c13.648-2.785,51.332-18.473,76.947-33.378c7.266-4.234,27.266-0.392,39.956,22.198
		c7.842,13.949,32.803,17.68,44.402,6.672c20.134-19.11,7.489-43.596-6.639-51.08c-26.303-13.92-10.403-36.565,0-51.063
		c10.487-14.664,26.063-35.469,48.988-20.581c29.592,19.25,39.112,4.245,39.956-5.929c1.476-17.746-15.442-19.714-31.086-23.68
		c-21.32-5.397-16.711-36.13-8.674-46.981C671.504,413.501,729.815,436.002,744.044,438.685z"></path>
</g>
</svg>
