<!--?xml version="1.0" encoding="utf-8"?-->
<!-- Generator: Adobe Illustrator 22.1.0, SVG Export Plug-In . SVG Version: 6.00 Build 0)  -->
<svg version="1.1" id="_x31_0" xmlns="http://www.w3.org/2000/svg" xmlns:xlink="http://www.w3.org/1999/xlink" x="0px" y="0px" viewBox="0 0 770.914 800" style="enable-background:new 0 0 770.914 800;" xml:space="preserve">
<style type="text/css">
	.st0{fill:#3FBAC8;}
</style>
<g>
	<path class="st0" d="M275.11,38.109c0,14.237-11.538,25.77-25.766,25.77c-14.227,0-25.77-11.533-25.77-25.77
		c0-14.228,11.543-25.761,25.77-25.761C263.573,12.348,275.11,23.881,275.11,38.109z"></path>
	<path class="st0" d="M307.654,46.245c0,3.75-3.028,6.783-6.783,6.783c-3.75,0-6.783-3.034-6.783-6.783
		c0-3.746,3.033-6.778,6.783-6.778C304.626,39.467,307.654,42.499,307.654,46.245z"></path>
	<path class="st0" d="M768.985,378.963c-0.097,3.74-3.208,6.705-6.947,6.599c-3.741-0.077-6.712-3.177-6.625-6.922
		c0.092-3.75,3.202-6.716,6.942-6.625C766.101,372.102,769.067,375.212,768.985,378.963z"></path>
	<path class="st0" d="M337.478,58.458c0-7.501,4.852-13.571,10.85-13.571c5.995,0,10.852,6.071,10.852,13.571
		c0,7.485-4.857,13.562-10.852,13.562C342.33,72.02,337.478,65.944,337.478,58.458z"></path>
	<path class="st0" d="M92.697,273.109c-2.085,12.276-13.443,20.586-25.37,18.562c-11.918-2.019-19.894-13.612-17.809-25.883
		c2.081-12.275,13.434-20.586,25.356-18.572C86.795,249.248,94.772,260.828,92.697,273.109z"></path>
	<path class="st0" d="M72.9,336.428c0-6.091,4.93-11.021,11.015-11.021c6.087,0,11.021,4.93,11.021,11.021
		c0,6.087-4.934,11.02-11.021,11.02C77.83,347.448,72.9,342.515,72.9,336.428z"></path>
	<path class="st0" d="M106.961,638.817c0,11.983-9.704,21.693-21.682,21.693c-11.994,0-21.702-9.709-21.702-21.693
		c0-11.984,9.708-21.708,21.702-21.708C97.257,617.108,106.961,626.832,106.961,638.817z"></path>
	<path class="st0" d="M521.898,725.586c0,8.987-7.284,16.283-16.272,16.283c-8.991,0-16.276-7.296-16.276-16.283
		c0-8.975,7.285-16.262,16.276-16.262C514.614,709.324,521.898,716.61,521.898,725.586z"></path>
	<path class="st0" d="M647.658,713.387c0,11.804-9.55,21.355-21.36,21.355c-11.788,0-21.348-9.551-21.348-21.355
		c0-11.794,9.559-21.349,21.348-21.349C638.108,692.038,647.658,701.593,647.658,713.387z"></path>
	<path class="st0" d="M683.004,599.489c0,8.848-7.182,16.016-16.015,16.016c-8.849,0-16.016-7.167-16.016-16.016
		c0-8.853,7.168-16.015,16.016-16.015C675.822,583.474,683.004,590.636,683.004,599.489z"></path>
	<path class="st0" d="M711.485,253.716c0,8.833-7.173,16.016-16.021,16.016c-8.847,0-16.02-7.184-16.02-16.016
		c0-8.847,7.173-16.031,16.02-16.031C704.312,237.685,711.485,244.869,711.485,253.716z"></path>
	<ellipse class="st0" cx="104.256" cy="733.727" rx="10.851" ry="10.841"></ellipse>
	<path class="st0" d="M726.651,424.571c10.851,2.03,21.021-4.073,20.34-14.248c-0.63-9.462-11.445-15.201-19.905-14.581
		c-12.291,0.896-98.742,18.659-108.739-37.714c-2.218-12.562-0.18-36.514,37.048-45.542c17.603-4.262,17.937-20.33,14.305-28.953
		c-3.638-8.602-19.551-18.224-30.735-9.837c-38.425,28.84-60.76,24.008-67.655,13.792c-6.911-10.206-19.576-41.919,22.457-62.254
		c42.078-20.365,32.277-46.373,25.754-52.889c-6.517-6.512-25.754-16.266-54.22,24.418c-15.627,22.302-37.766,17.701-47.869,10.637
		c-39.691-27.703-17.316-52.106,53.878-96.853c12.409-7.798,12.199-38.646-7.372-27.692c-10.642,5.943-34.256,38.605-42.944,21.242
		c-3.622-7.235,33.682-63.024,36.612-67.343c7.838-11.569,12.055-25.437,1.808-33c-8.576-6.322-24.028,4.611-37.068,29.839
		c-32.406,62.716-38.246,119.991-90.725,137.701c-12.076,4.089-36.499-3.016-35.335-33.245c0.322-8.489-7.398-14.715-13.352-14.715
		c-5.973,0-15.227,3.798-13.372,14.715c3.165,18.716-6.307,33.62-34.65,33.245c-29.003-0.383-46.08-43.784-49.025-53.283
		c-4.145-13.397-18.291-36.658-33.149-31.084c-16.277,6.103-7.526,33.108,9.622,52.781c23.797,27.288,5.225,63.724-13.26,67.691
		c-7.526,1.614-14.667,13.767-34.619-3.966c-10.964-9.739-24.813-39.214-45.143-24.3c-18.618,13.649-3.038,40.414,12.922,55.584
		c12.85,12.219,12.85,27.138,10.139,35.269c-3.904,11.692-13.075,27.19-32.395,14.095c-11.574-7.839-31.775-1.02-35.408,7.598
		c-3.648,8.608,1.363,29.834,18.983,31.187c19.458,1.5,10.855,28.475,4.595,35.161c-29.731,31.801-81.933,17.589-105.68,11.046
		c-13.638-3.76-24.52,12.311-24.52,22.261c0,9.939,10.82,25.811,24.52,22.255c54.913-14.227,105.762,8.147,105.68,41.152
		c-0.19,84.306-111.255,99.123-130.734,104.866c-13.439,3.971-17.942,20.33-14.299,28.948c3.638,8.617,19.309,17.901,30.73,9.841
		c15.693-11.081,110.721-88.993,150.422-57.848c28.452,22.317,8.705,61.506-40.971,87.774c-12.317,6.506-14.94,30.319-7.27,35.432
		c18.3,12.199,29.644,5.975,36.616-6.101c30.506-52.879,30.506-65.077,76.431-52.284c13.306,3.704,31.894,21.247,12.24,35.603
		c-11.276,8.259-13.418,30.929,4.878,41.084c16.866,9.375,32.222-10.748,33.907-24.664c2.552-20.842,22.046-16.599,34.788-15.934
		c51.383,2.777,18.762,81.272,12.66,117.895C341.638,794.9,366.015,798,371.974,798c16.276,0,52.889-20.351,30.515-61.019
		c-12.742-23.159-10.759-92.744,29.131-95.521c12.732-0.871,27.441-9.421,34.784,15.934c3.893,13.48,20.33,17.947,28.947,14.315
		c8.602-3.633,22.973-22.144,12.711-32.661c-19.156-19.68,2.983-29.373,9.37-33.676c6.379-4.313,34.174-0.41,46.506,19.878
		c33.568,55.246,63.72,27.129,66.435,6.789c3.069-23.025-18.983-31.187-44.742-40.69c-25.576-9.417-20.591-35.644-16.283-42.033
		c4.318-6.378,27.133-33.902,46.577-18.131c11.415,9.253,29.024-4.109,32.661-12.711c3.642-8.617,0.743-28.845-13.578-32.468
		c-19.551-4.934-18.009-23.404-16.661-31.263C626.98,404.227,713.621,422.116,726.651,424.571z"></path>
</g>
</svg>
