<!--?xml version="1.0" encoding="utf-8"?-->
<!-- Generator: Adobe Illustrator 22.1.0, SVG Export Plug-In . SVG Version: 6.00 Build 0)  -->
<svg version="1.1" id="_x31__1_" xmlns="http://www.w3.org/2000/svg" xmlns:xlink="http://www.w3.org/1999/xlink" x="0px" y="0px" viewBox="0 0 785.397 800" style="enable-background:new 0 0 785.397 800;" xml:space="preserve">
<style type="text/css">
	.st0{fill:#3FBAC8;}
</style>
<g>
	<path class="st0" d="M765.992,393.118c9.283,1.733,17.995-3.485,17.414-12.196c-0.544-8.095-9.782-13.013-17.043-12.477
		c-10.517,0.762-123.059,9.791-139.73-36.271c-11.515-31.897,63.386-72.941,95.256-80.655c15.064-3.648,15.363-17.405,12.242-24.783
		c-3.113-7.369-16.733-15.59-26.298-8.412c-32.886,24.664-97.361,61.045-113.841,45.454c-7.649-7.25-17.958-26.552,11.606-45.272
		c10.073-6.38,13.376-20.745,4.102-31.19c-5.245-5.89-22.541-8.839-29.211,6.071c-10.254,22.95-36.688,23.531-45.064,17.143
		c-17.804-13.558,5.408-87.843,70.409-167.925c7.541-9.275,18.43-28.676-5.808-39.447c-10.444-4.646-30.172,4.637-34.81,29.011
		c-12.541,65.772-75.809,141.264-98.386,140.175c-18.848-0.898-29.138-14.492-28.131-40.364c0.291-7.259-6.325-12.595-11.425-12.595
		c-5.109,0-13.023,3.257-11.443,12.595c2.714,16.018-7.532,40.69-31.797,40.364c-24.474-0.327-55.582-90.274-64.883-115.792
		c-9.275-25.545-19.72-63.848-47.588-52.251c-13.711,5.735-14.692,30.581,10.454,68.495c49.347,74.394,52.95,121.064,30.299,131.999
		c-19.855,9.591-38.412-6.661-59.311-34.52c-7.531-10.037-24.229-6.144-29.811-0.572c-5.571,5.572-13.167,16.516,2.251,27.36
		c34.519,24.293,35.681,52.987,29.674,61.662c-20.689,29.937-83.359-4.882-111.09-28.794c-19.529-16.869-43.649-18.176-49.448-1.933
		c-7.867,22.006,23.431,34.248,35.391,35.128c16.67,1.225,102.651,52.896,99.757,63.35c-0.617,2.224-2.904,19.338-12.187,16.243
		c-3.13-1.052-11.225-1.742-12.005,5.999c-0.445,4.492,1.923,9.546,10.263,10.245c9.283,0.771,6.434,20.491,5.218,23.785
		c-4.165,11.406-14.139,17.151-29.148,18.503c-12.052,1.106-49.892-8.123-54.538,12.767c-4.872,21.888,31.398,18.802,42.496,13.93
		c14.138-6.216,21.025-9.546,34.102-9.283c58.031,1.152-108.84,92.67-187.245,117.207c-11.452,3.566-30.172,23.203-23.212,39.456
		c4.338,10.117,26.697,31.334,52.243,8.131c47.604-43.286,165.429-121.735,199.404-95.066
		c24.348,19.111-28.059,77.234-70.591,99.702c-10.536,5.563-25.536,25.527-13.921,40.618c10.509,13.676,34.665,7.259,41.77-2.314
		c26.688-35.981,74.275-97.497,98.214-82.534c29.056,18.177-26.725,143.95-64.556,203.235c-10.926,17.114-5.509,43.295,8.131,48.748
		c23.213,9.275,32.85-13.702,34.81-25.544c11.606-69.621,62.025-192.572,89.884-199.532c38.43-9.601,23.657,94.856,19.41,112.489
		c-2.84,11.779,5.899,26.788,19.048,27.568c14.673,0.872,21.643-15.726,19.066-27.568c-8.603-39.365-0.091-99.421,30.445-108.487
		c44.983-13.358,55.183,52.95,59.23,91.699c2.006,19.111,17.45,33.821,25.227,31.888c23.204-5.808,25.536-29.02,10.436-47.587
		c-22.259-27.396-43.712-100.183-21.461-106.908c61.316-18.493,167.97,146.283,177.933,163.987
		c6.144,10.943,24.583,21.843,36.19,10.227c9.89-9.882,12.767-26.688-6.961-39.456c-32.686-21.143-166.755-150.085-151.681-190.231
		c2.314-6.171,12.177-21.515,28.812-8.022c9.773,7.94,24.855-3.511,27.967-10.871c3.113-7.378,0.645-24.692-11.624-27.796
		c-16.734-4.229-15.409-20.028-14.266-26.752C634.02,371.712,754.839,391.022,765.992,393.118z"></path>
</g>
</svg>
